<?xml version="1.0" standalone="no"?>
<!DOCTYPE svg PUBLIC "-//W3C//DTD SVG 20010904//EN"
 "http://www.w3.org/TR/2001/REC-SVG-20010904/DTD/svg10.dtd">
<svg version="1.0" xmlns="http://www.w3.org/2000/svg"
 width="668.000000pt" height="668.000000pt" viewBox="0 0 668.000000 668.000000"
 preserveAspectRatio="xMidYMid meet">
<metadata>
Created by potrace 1.14, written by Peter Selinger 2001-2017
</metadata>
<g transform="translate(0.000000,668.000000) scale(0.100000,-0.100000)"
fill="#000000" stroke="none">
<path d="M3108 6545 c-2 -2 -37 -6 -78 -10 -111 -9 -246 -28 -325 -45 -22 -5
-53 -11 -70 -14 -16 -3 -40 -8 -52 -11 -13 -3 -32 -7 -43 -9 -108 -24 -354
-103 -475 -153 -61 -25 -75 -31 -177 -77 -31 -14 -61 -26 -67 -26 -5 0 -11 -4
-13 -8 -1 -4 -30 -21 -63 -37 -33 -16 -94 -50 -135 -75 -41 -25 -83 -49 -93
-55 -36 -21 -165 -111 -247 -174 -177 -135 -361 -311 -529 -506 -77 -88 -254
-344 -307 -440 -23 -43 -77 -141 -83 -150 -3 -5 -6 -12 -6 -15 -1 -3 -10 -23
-22 -45 -11 -22 -33 -69 -48 -105 -15 -36 -33 -78 -40 -95 -36 -78 -125 -361
-141 -445 -2 -14 -7 -31 -10 -39 -2 -8 -7 -30 -10 -50 -3 -20 -11 -61 -18 -92
-7 -31 -12 -71 -12 -88 1 -17 -2 -31 -5 -31 -3 0 -6 -6 -6 -12 0 -7 -4 -51 -9
-98 -16 -151 -9 -603 11 -700 3 -14 8 -45 11 -70 4 -36 36 -197 59 -304 19
-85 110 -351 153 -445 14 -31 27 -65 29 -76 2 -10 7 -22 11 -25 4 -3 22 -36
40 -75 65 -136 181 -325 290 -475 31 -41 58 -77 61 -80 3 -3 24 -27 46 -55 79
-100 258 -285 372 -383 175 -152 432 -330 608 -421 44 -22 85 -44 90 -49 6 -4
35 -18 65 -31 30 -13 82 -36 115 -51 33 -14 87 -37 120 -49 33 -13 69 -27 80
-32 34 -15 257 -81 325 -96 36 -8 70 -16 75 -17 6 -1 19 -5 30 -9 11 -3 36 -8
55 -11 19 -3 58 -10 87 -15 29 -6 74 -13 100 -16 26 -3 57 -8 68 -10 65 -13
208 -19 415 -19 273 0 343 5 568 40 196 31 492 111 667 180 22 9 50 20 63 25
54 21 78 32 92 40 8 5 22 12 30 15 27 9 233 113 290 146 52 29 234 144 255
160 6 5 33 25 60 45 222 162 489 419 631 608 21 28 40 52 43 55 10 9 90 125
193 281 6 10 10 20 9 24 -2 4 2 11 7 14 26 16 182 342 231 481 13 36 27 74 31
85 11 24 57 175 65 207 2 13 12 50 20 83 9 33 17 72 19 87 3 15 7 35 10 45 5
17 8 40 21 131 3 20 8 48 10 62 13 69 19 196 19 400 0 231 -4 288 -30 465 -4
28 -9 57 -10 65 -7 52 -17 96 -25 117 -5 13 -7 23 -4 23 2 0 -1 15 -6 33 -6
17 -12 39 -14 47 -1 8 -10 42 -19 75 -9 33 -19 67 -21 75 -12 47 -61 187 -87
250 -37 87 -127 284 -138 300 -6 8 -17 29 -26 45 -18 36 -25 48 -84 145 -25
41 -53 84 -62 94 -10 11 -18 24 -18 29 0 5 -11 23 -25 41 -14 17 -29 36 -33
41 -61 84 -68 92 -163 205 -131 155 -378 385 -533 495 -15 11 -43 31 -60 45
-18 14 -49 34 -69 45 -20 11 -37 23 -37 27 0 5 -7 8 -15 8 -8 0 -15 5 -15 10
0 6 -4 10 -8 10 -5 0 -47 23 -93 51 -46 28 -149 82 -229 121 -80 38 -153 73
-162 79 -10 5 -22 9 -28 9 -6 0 -29 9 -53 19 -38 17 -74 32 -87 36 -3 1 -63
20 -135 43 -118 38 -270 79 -320 87 -34 6 -139 25 -165 30 -29 6 -77 13 -140
20 -25 3 -65 8 -90 11 -49 7 -556 15 -562 9z m417 -399 c97 -6 131 -9 225 -21
82 -11 110 -16 180 -31 14 -3 36 -7 50 -9 65 -11 259 -64 285 -78 11 -6 21
-10 23 -9 5 5 60 -12 107 -33 28 -12 53 -23 57 -24 36 -9 52 -16 182 -75 155
-72 444 -242 454 -267 2 -5 8 -9 14 -9 11 0 163 -121 256 -204 110 -98 249
-247 334 -356 67 -87 98 -131 98 -138 1 -4 14 -23 30 -42 17 -19 30 -40 30
-47 0 -7 5 -13 10 -13 6 0 10 -5 10 -10 0 -6 15 -34 33 -63 49 -77 129 -239
172 -347 20 -52 41 -104 46 -115 13 -30 56 -165 75 -237 1 -5 2 -9 4 -10 1 -2
3 -12 5 -23 2 -11 6 -31 9 -45 24 -103 27 -123 51 -300 6 -46 17 -171 16 -187
0 -16 0 -62 0 -145 1 -74 -8 -238 -16 -282 -3 -17 -7 -47 -9 -66 -15 -121 -48
-265 -110 -475 -2 -5 -7 -21 -13 -35 -32 -81 -57 -156 -55 -162 1 -5 -2 -8 -7
-8 -7 0 -20 -30 -21 -48 0 -4 -126 -247 -149 -287 -30 -52 -182 -275 -201
-295 -8 -9 -33 -38 -55 -66 -125 -153 -284 -306 -487 -466 -26 -21 -50 -38
-53 -38 -3 0 -15 -8 -26 -18 -10 -11 -32 -25 -47 -33 -15 -8 -29 -17 -32 -20
-25 -31 -359 -208 -495 -262 -166 -65 -391 -137 -479 -153 -17 -3 -51 -10 -76
-15 -25 -6 -58 -12 -75 -15 -16 -2 -41 -6 -55 -8 -146 -25 -310 -37 -480 -38
-90 0 -286 10 -317 16 -12 3 -50 7 -84 11 -35 4 -66 8 -69 10 -3 1 -27 6 -55
9 -118 16 -478 117 -596 168 -18 8 -47 21 -64 28 -16 8 -32 14 -35 15 -19 3
-198 95 -285 145 -92 53 -291 183 -305 199 -3 3 -25 22 -50 41 -73 57 -80 62
-144 122 -201 186 -314 315 -459 526 -31 45 -57 85 -57 88 0 3 -8 18 -19 32
-42 60 -152 282 -202 410 -5 12 -13 32 -18 45 -13 33 -38 107 -39 117 0 3 -6
19 -12 35 -7 17 -13 37 -15 45 -2 8 -12 49 -23 90 -21 80 -38 160 -48 225 -3
22 -7 47 -9 55 -3 8 -7 44 -10 80 -4 36 -8 81 -10 100 -5 41 -5 345 0 410 3
39 8 88 20 180 7 52 17 108 36 195 25 113 27 120 29 120 1 0 3 8 6 18 22 92
68 224 122 352 60 143 220 432 245 443 4 2 7 8 7 13 0 14 100 148 186 250 249
295 551 532 911 717 56 29 108 52 116 52 9 0 17 4 19 8 4 11 193 84 328 126
111 35 296 80 376 91 22 4 46 8 54 10 8 2 42 7 75 11 33 3 69 8 80 10 11 2 83
7 160 10 77 4 141 7 142 8 2 2 88 -2 198 -8z"/>
<path d="M2901 5258 c-13 -30 -34 -74 -131 -283 -15 -33 -54 -116 -85 -185
-57 -124 -80 -175 -169 -362 -25 -54 -46 -100 -46 -102 0 -2 -27 -61 -60 -130
-33 -70 -60 -128 -60 -130 0 -2 -22 -50 -49 -107 -54 -117 -96 -207 -142 -307
-17 -37 -53 -114 -80 -171 -27 -57 -49 -105 -49 -106 0 -2 -23 -52 -51 -112
-57 -120 -97 -208 -124 -268 -9 -22 -28 -62 -41 -88 -13 -27 -24 -50 -24 -52
0 -2 99 -4 220 -4 l221 0 9 24 c5 14 19 46 31 73 12 26 49 110 81 187 33 77
66 153 74 169 8 16 14 33 14 39 0 5 7 23 15 40 19 41 133 319 192 470 26 64
49 117 52 117 7 0 10 -7 85 -170 57 -123 97 -210 147 -317 18 -38 44 -95 59
-128 15 -33 44 -96 65 -140 21 -44 50 -108 66 -142 16 -35 43 -93 60 -130 17
-38 43 -93 56 -123 14 -30 46 -98 70 -150 25 -52 67 -144 95 -205 28 -60 72
-156 99 -213 27 -57 49 -105 49 -106 0 -2 20 -46 44 -97 24 -52 55 -119 69
-149 14 -30 45 -98 70 -150 24 -52 56 -122 71 -155 21 -46 30 -56 36 -44 8 13
108 229 240 514 15 33 48 103 72 155 25 52 58 124 73 160 16 36 32 67 36 70 3
3 10 16 14 30 8 27 80 185 96 210 5 8 12 22 15 30 3 8 11 29 19 45 17 37 86
185 130 280 18 39 44 95 58 125 14 30 73 159 132 285 58 127 123 266 143 309
20 44 51 109 68 145 24 50 28 67 18 71 -7 3 -108 5 -224 4 l-211 -1 -13 -24
c-6 -13 -20 -44 -30 -69 -10 -25 -24 -61 -33 -80 -8 -19 -19 -44 -23 -55 -5
-11 -18 -41 -29 -68 -11 -26 -20 -50 -21 -52 0 -3 -17 -42 -36 -87 -20 -46
-51 -119 -69 -163 -64 -155 -187 -450 -201 -480 -7 -16 -53 -127 -103 -245
-138 -331 -127 -310 -139 -280 -15 38 -92 221 -107 255 -7 17 -52 125 -100
240 -47 116 -94 228 -104 250 -10 22 -29 65 -41 95 -43 103 -50 120 -65 153
-7 17 -35 84 -60 147 -25 63 -55 135 -66 160 -26 57 -43 98 -56 130 -39 94
-67 156 -73 165 -5 6 -93 10 -229 9 -122 0 -221 2 -221 4 0 2 6 16 14 30 8 15
56 128 106 252 86 212 110 262 110 232 0 -12 25 -70 100 -237 15 -33 48 -110
74 -171 l47 -111 195 1 c107 1 194 5 194 9 0 5 -11 32 -24 60 -38 83 -135 287
-167 351 -16 32 -29 64 -29 72 0 8 -4 14 -10 14 -5 0 -10 4 -10 9 0 5 -26 65
-59 133 -86 182 -177 371 -225 473 -24 50 -54 111 -66 138 -12 26 -25 47 -29
47 -3 0 -13 -15 -20 -32z"/>
</g>
</svg>
