<svg xmlns="http://www.w3.org/2000/svg" viewBox="0 0 50 50" width="50" height="50"><defs><linearGradient id="a" x1="50%" y1="0%" x2="50%" y2="100%"><stop offset="0%" stop-color="#fff"><animate attributeName="stop-color" values="#fff; #dd2a7b; #fff" dur="4s" repeatCount="indefinite"/></stop><stop offset="100%" stop-color="#dd2a7b"><animate attributeName="stop-color" values="#dd2a7b; #fff; #dd2a7b" dur="4s" repeatCount="indefinite"/></stop></linearGradient></defs><path fill="url('#a')" d="M16 3C8.832 3 3 8.832 3 16v18c0 7.168 5.832 13 13 13h18c7.168 0 13-5.832 13-13V16c0-7.168-5.832-13-13-13H16zm0 2h18c6.086 0 11 4.914 11 11v18c0 6.086-4.914 11-11 11H16C9.914 45 5 40.086 5 34V16C5 9.914 9.914 5 16 5zm21 6a2 2 0 0 0-2 2 2 2 0 0 0 2 2 2 2 0 0 0 2-2 2 2 0 0 0-2-2zm-12 3c-6.063 0-11 4.937-11 11s4.937 11 11 11 11-4.937 11-11-4.937-11-11-11zm0 2c4.982 0 9 4.018 9 9s-4.018 9-9 9-9-4.018-9-9 4.018-9 9-9z"/></svg>